<svg width="64" height="70" viewBox="0 0 64 70" fill="none" xmlns="http://www.w3.org/2000/svg">
<g id="whatuni_logo.svg" clip-path="url(#clip0_1_7916)">
<path id="Vector" d="M63.928 31.9643C63.928 14.3153 49.6133 0 31.9643 0C14.3153 0 0 14.3153 0 31.9643C0 47.2877 10.7756 60.0782 25.1426 63.2044L31.9381 70L38.7337 63.2044C53.1276 60.1043 63.928 47.2877 63.928 31.9643Z" fill="#00B6EE"/>
<g id="Group">
<path id="Vector_2" d="M22.3781 31.4991H19.7169L17.6497 23.2303H17.6235L15.608 31.4991H12.8945L9.66412 19.3289H12.326L14.2381 27.5976H14.2643L16.3832 19.3289H18.89L20.9572 27.701H20.9834L22.9727 19.3289H25.5829L22.3781 31.4991Z" fill="white"/>
<path id="Vector_3" d="M26.2017 19.3542H28.8635V24.0316H33.7731V19.3542H36.4605V31.5252H33.7993V26.2793H28.8897V31.5245H26.2278V19.3542H26.2017Z" fill="white"/>
<path id="Vector_4" d="M41.4472 19.3542H44.1869L48.7348 31.5252H45.9695L45.0393 28.8117H40.4908L39.5351 31.5252H36.8222L41.4472 19.3542ZM41.1888 26.8223H44.3413L42.8171 22.3517H42.7916L41.1888 26.8223Z" fill="white"/>
<path id="Vector_5" d="M49.1737 21.6027H45.5299V19.3542H55.5048V21.6027H51.861V31.5252H49.1999V21.6027H49.1737Z" fill="white"/>
<path id="Vector_6" d="M21.1115 40.1035C21.1115 43.3855 19.1732 44.9876 15.9174 44.9876C12.6354 44.9876 10.7494 43.4117 10.7494 40.1035V32.5327H13.4106V40.1035C13.4106 41.4216 13.7468 42.7391 15.9174 42.7391C17.8295 42.7391 18.4497 41.9123 18.4497 40.1035V32.5327H21.1115V40.1035Z" fill="white"/>
<path id="Vector_7" d="M22.0673 32.5327H24.7291L29.7937 40.6988H29.8192V32.5327H32.3261V44.7037H29.6649L24.6003 36.5637H24.5741V44.7037H22.0673V32.5327Z" fill="white"/>
<path id="Vector_8" d="M33.308 32.5327H35.9692V44.7037H33.308V32.5327Z" fill="white"/>
<path id="Vector_9" d="M37.0289 36.4603C37.0806 34.0314 38.682 32.2488 41.1633 32.2488C44.3937 32.2488 45.4004 34.2126 45.4004 35.5308C45.4004 37.1839 44.703 37.8564 43.9788 38.3987C43.2553 38.941 42.4546 39.3806 42.2989 40.3887V41.035H39.9995V40.2598C40.1022 38.7866 40.8002 38.1155 41.4727 37.5987C42.1445 37.0819 42.713 36.6677 42.713 35.7637C42.713 34.7301 42.17 34.2395 41.2653 34.2395C40.0512 34.2395 39.5344 35.2469 39.5082 36.4617H37.0289V36.4603ZM39.768 42.0679H42.4291V44.6774H39.768V42.0679Z" fill="#A8DBF4"/>
</g>
</g>
<defs>
<clipPath id="clip0_1_7916">
<rect width="63.7819" height="70" fill="white"/>
</clipPath>
</defs>
</svg>
